<svg xmlns="http://www.w3.org/2000/svg" viewBox="0 0 48 48"><defs><style>.cls-5{fill:#505572}.cls-8{fill:#29a892}.cls-9{fill:#231f20}</style></defs><g id="Online_Payment" data-name="Online Payment"><path style="fill:#8491c1" d="M29 42H19l1-9h8l1 9z"/><path style="fill:#6c80ad" d="M28 33h-3l1 9h3l-1-9z"/><rect x="2" y="4" width="44" height="31" rx="2" ry="2" style="fill:#d3dbef"/><path d="M44 4h-3a2 2 0 0 1 2 2v27a2 2 0 0 1-2 2h3a2 2 0 0 0 2-2V6a2 2 0 0 0-2-2z" style="fill:#bfcae2"/><path class="cls-5" d="M33 42H15a4 4 0 0 0-4 4h26a4 4 0 0 0-4-4z"/><path d="M33 42h-3a4 4 0 0 1 4 4h3a4 4 0 0 0-4-4z" style="fill:#3d4360"/><path d="M11 3h24a2 2 0 0 1 2 2v20a2 2 0 0 1-2 2H11V3z" transform="rotate(-90 24 15)" style="fill:#4ac6b7"/><path class="cls-8" d="M12 8V4a2 2 0 0 1 2-2h4a6 6 0 0 1-6 6zM36 4v4a6 6 0 0 1-6-6h4a2 2 0 0 1 2 2z"/><path class="cls-5" d="M38 29H10a1 1 0 0 1 0-2h28a1 1 0 0 1 0 2zM26 22h-5a1 1 0 0 1 0-2h5v-2h-4a2.002 2.002 0 0 1-2-2v-2a2.002 2.002 0 0 1 2-2h5a1 1 0 0 1 0 2h-5v2h4a2.002 2.002 0 0 1 2 2v2a2.002 2.002 0 0 1-2 2z"/><path class="cls-5" d="M24 14a1 1 0 0 1-1-1v-2a1 1 0 0 1 2 0v2a1 1 0 0 1-1 1zM24 24a1 1 0 0 1-1-1v-2a1 1 0 0 1 2 0v2a1 1 0 0 1-1 1z"/><path class="cls-9" d="M44 3h-7.184A2.995 2.995 0 0 0 34 1H14a2.995 2.995 0 0 0-2.816 2H4a3.003 3.003 0 0 0-3 3v27a3.003 3.003 0 0 0 3 3h14.662l-.556 5H15a5.006 5.006 0 0 0-5 5 1 1 0 0 0 1 1h26a1 1 0 0 0 1-1 5.006 5.006 0 0 0-5-5h-3.105l-.557-5H44a3.003 3.003 0 0 0 3-3V6a3.003 3.003 0 0 0-3-3zM13 8.92A7.005 7.005 0 0 0 18.92 3h10.16A7.005 7.005 0 0 0 35 8.92V27H13zM35 4v2.899A5.014 5.014 0 0 1 31.101 3H34a1.001 1.001 0 0 1 1 1zM14 3h2.899A5.014 5.014 0 0 1 13 6.899V4a1.001 1.001 0 0 1 1-1zm21.829 42H12.17A3.005 3.005 0 0 1 15 43h18a3.005 3.005 0 0 1 2.829 2zm-7.947-4h-7.764l.556-5h6.652zM45 33a1.001 1.001 0 0 1-1 1H4a1.001 1.001 0 0 1-1-1V6a1.001 1.001 0 0 1 1-1h7v22h-1a1 1 0 0 0 0 2h28a1 1 0 0 0 0-2h-1V5h7a1.001 1.001 0 0 1 1 1z"/><path class="cls-9" d="M27 14a1 1 0 0 0 0-2h-2v-1a1 1 0 0 0-2 0v1h-1a2.002 2.002 0 0 0-2 2v2a2.002 2.002 0 0 0 2 2h4v2h-5a1 1 0 0 0 0 2h2v1a1 1 0 0 0 2 0v-1h1a2.002 2.002 0 0 0 2-2v-2a2.002 2.002 0 0 0-2-2h-4v-2z"/></g></svg>